<svg width="64" height="64" viewBox="0 0 64 64" fill="none" xmlns="http://www.w3.org/2000/svg">
<path d="M19.2 14C11.2873 14 5.8325 16.6925 5.8325 16.6925C5.61857 16.7983 5.43849 16.9618 5.31259 17.1646C5.18669 17.3674 5.11998 17.6013 5.12 17.84V21.68H3.84C1.73444 21.68 0 23.4144 0 25.52V58.8C0 60.9055 1.73444 62.64 3.84 62.64H29.1575C29.8603 63.4199 30.8673 63.92 32 63.92C33.1327 63.92 34.1397 63.4199 34.8425 62.64H60.16C62.2656 62.64 64 60.9055 64 58.8V25.52C64 23.4144 62.2656 21.68 60.16 21.68H58.88V17.84C58.88 17.6013 58.8133 17.3674 58.6874 17.1646C58.5615 16.9618 58.3814 16.7983 58.1675 16.6925C58.1675 16.6925 52.7127 14 44.8 14C38.0391 14 33.3026 15.8752 32 16.4475C30.6974 15.8752 25.9609 14 19.2 14ZM19.2 16.56C25.7626 16.56 29.8182 18.3191 30.72 18.73V55.7C28.8236 54.9416 25.1687 53.68 19.2 53.68C13.2313 53.68 9.57643 54.9416 7.68 55.7V23.175C7.70285 23.0367 7.70285 22.8957 7.68 22.7575V18.73C8.58184 18.3191 12.6374 16.56 19.2 16.56ZM44.8 16.56C51.3626 16.56 55.4182 18.3191 56.32 18.73V22.745C56.2972 22.8832 56.2972 23.0242 56.32 23.1625V55.7C54.4236 54.9416 50.7687 53.68 44.8 53.68C38.8313 53.68 35.1764 54.9416 33.28 55.7V18.73C34.1818 18.3191 38.2374 16.56 44.8 16.56ZM43.52 21.68V24.35C41.3256 24.7045 39.8973 25.9314 39.205 27.1575C38.3854 28.609 38.4 30.055 38.4 30.055C38.4 31.8742 39.314 33.3242 40.4725 34.2675C41.631 35.2108 43.0042 35.7916 44.2825 36.3575C45.5608 36.9234 46.7415 37.4748 47.5025 38.105C48.2635 38.7351 48.64 39.3058 48.64 40.4C48.64 40.4 48.6292 41.1494 48.18 41.9075C47.7308 42.6655 47 43.44 44.8 43.44C42.6667 43.44 41.9524 42.5622 41.465 41.5875C40.9776 40.6128 40.96 39.6 40.96 39.6H38.4C38.4 39.6 38.3823 41.1472 39.175 42.7325C39.8466 44.0757 41.2828 45.4774 43.52 45.8775V48.56H46.08V45.895C48.2585 45.558 49.6789 44.3955 50.38 43.2125C51.2108 41.8105 51.2 40.4 51.2 40.4C51.2 38.561 50.2965 37.0922 49.1375 36.1325C47.9785 35.1727 46.5992 34.5849 45.3175 34.0175C44.0358 33.4501 42.849 32.9025 42.0875 32.2825C41.326 31.6624 40.96 31.1157 40.96 30.055C40.96 30.055 40.9746 29.2303 41.435 28.415C41.8954 27.5997 42.6178 26.8 44.8 26.8C46.9333 26.8 47.6476 27.6778 48.135 28.6525C48.6223 29.6272 48.64 30.64 48.64 30.64H51.2C51.2 30.64 51.2177 29.0928 50.425 27.5075C49.7534 26.1642 48.3172 24.7626 46.08 24.3625V21.68H43.52ZM3.84 24.24H5.12V57.52C5.12001 57.7382 5.17578 57.9527 5.28203 58.1433C5.38829 58.3339 5.54148 58.4941 5.72709 58.6088C5.91269 58.7236 6.12453 58.7889 6.3425 58.7988C6.56047 58.8086 6.77733 58.7625 6.9725 58.665C6.9725 58.665 11.8071 56.24 19.2 56.24C26.5929 56.24 31.4275 58.665 31.4275 58.665C31.4634 58.6825 31.5001 58.6984 31.5375 58.7125C31.5704 58.7247 31.6037 58.7355 31.6375 58.745C31.6475 58.7484 31.6575 58.7518 31.6675 58.755C31.7468 58.7769 31.828 58.7911 31.91 58.7975C31.9533 58.8005 31.9967 58.8013 32.04 58.8C32.0425 58.8 32.045 58.8 32.0475 58.8C32.0902 58.7979 32.1327 58.7938 32.175 58.7875C32.2136 58.7826 32.252 58.7759 32.29 58.7675C32.2933 58.7666 32.2967 58.7658 32.3 58.765C32.3042 58.7642 32.3083 58.7633 32.3125 58.7625C32.4024 58.7395 32.4896 58.7068 32.5725 58.665C32.5725 58.665 37.4071 56.24 44.8 56.24C52.1929 56.24 57.0275 58.665 57.0275 58.665C57.2227 58.7625 57.4395 58.8086 57.6575 58.7988C57.8755 58.7889 58.0873 58.7236 58.2729 58.6088C58.4585 58.4941 58.6117 58.3339 58.718 58.1433C58.8242 57.9527 58.88 57.7382 58.88 57.52V24.24H60.16C60.8832 24.24 61.44 24.7967 61.44 25.52V58.8C61.44 59.5232 60.8832 60.08 60.16 60.08H3.84C3.11676 60.08 2.56 59.5232 2.56 58.8V25.52C2.56 24.7967 3.11676 24.24 3.84 24.24Z" fill="#00486D"/>
</svg>
