<svg width="49" height="64" viewBox="0 0 49 64" fill="none" xmlns="http://www.w3.org/2000/svg">
<path d="M3.84 0C1.735 0 0 1.735 0 3.84V64H48.64V3.84C48.64 1.735 46.905 0 44.8 0H3.84ZM3.84 2.56H44.8C45.51 2.56 46.08 3.13 46.08 3.84V61.44H40.96V46.08H26.88V61.44H2.56V3.84C2.56 3.13 3.13 2.56 3.84 2.56ZM7.68 7.68V17.92H21.76V7.68H7.68ZM26.88 7.68V17.92H40.96V7.68H26.88ZM10.24 10.24H19.2V15.36H10.24V10.24ZM29.44 10.24H38.4V15.36H29.44V10.24ZM7.68 20.48V30.72H21.76V20.48H7.68ZM26.88 20.48V30.72H40.96V20.48H26.88ZM10.24 23.04H19.2V28.16H10.24V23.04ZM29.44 23.04H38.4V28.16H29.44V23.04ZM7.68 33.28V43.52H21.76V33.28H7.68ZM26.88 33.28V43.52H40.96V33.28H26.88ZM10.24 35.84H19.2V40.96H10.24V35.84ZM29.44 35.84H38.4V40.96H29.44V35.84ZM7.68 46.08V56.32H21.76V46.08H7.68ZM10.24 48.64H19.2V53.76H10.24V48.64ZM29.44 48.64H38.4V61.44H29.44V48.64Z" fill="#00486D"/>
</svg>
