<svg width="130" height="36" viewBox="0 0 130 36" fill="none" xmlns="http://www.w3.org/2000/svg">
<path fill-rule="evenodd" clip-rule="evenodd" d="M0 18C0 9.16347 7.16347 2 16 2C24.8365 2 32 9.16347 32 18C32 26.8365 24.8365 34 16 34C7.16347 34 0 26.8365 0 18ZM17.6677 27.4077V18.7028H20.0706L20.3891 15.7031H17.6677L17.6718 14.2017C17.6718 13.4193 17.7461 13.0001 18.8699 13.0001H20.3721V10H17.9688C15.0821 10 14.0661 11.4552 14.0661 13.9024V15.7034H12.2667V18.7031H14.0661V27.4077H17.6677Z" fill="#99B6C5"/>
<path d="M41.48 24V10H50V11.38H43.16V16.3H48.98V17.66H43.16V24H41.48ZM54.68 24.24C53.8533 24.24 53.1667 24.1 52.62 23.82C52.0733 23.54 51.6667 23.1667 51.4 22.7C51.1333 22.2333 51 21.7267 51 21.18C51 20.1667 51.3867 19.3867 52.16 18.84C52.9333 18.2933 53.9867 18.02 55.32 18.02H58V17.9C58 17.0333 57.7733 16.38 57.32 15.94C56.8667 15.4867 56.26 15.26 55.5 15.26C54.8467 15.26 54.28 15.4267 53.8 15.76C53.3333 16.08 53.04 16.5533 52.92 17.18H51.2C51.2667 16.46 51.5067 15.8533 51.92 15.36C52.3467 14.8667 52.8733 14.4933 53.5 14.24C54.1267 13.9733 54.7933 13.84 55.5 13.84C56.8867 13.84 57.9267 14.2133 58.62 14.96C59.3267 15.6933 59.68 16.6733 59.68 17.9V24H58.18L58.08 22.22C57.8 22.78 57.3867 23.26 56.84 23.66C56.3067 24.0467 55.5867 24.24 54.68 24.24ZM54.94 22.82C55.58 22.82 56.1267 22.6533 56.58 22.32C57.0467 21.9867 57.4 21.5533 57.64 21.02C57.88 20.4867 58 19.9267 58 19.34V19.32H55.46C54.4733 19.32 53.7733 19.4933 53.36 19.84C52.96 20.1733 52.76 20.5933 52.76 21.1C52.76 21.62 52.9467 22.04 53.32 22.36C53.7067 22.6667 54.2467 22.82 54.94 22.82ZM66.7603 24.24C65.8136 24.24 64.9603 24.0267 64.2003 23.6C63.4536 23.16 62.8603 22.5533 62.4203 21.78C61.9936 20.9933 61.7803 20.08 61.7803 19.04C61.7803 18 61.9936 17.0933 62.4203 16.32C62.8603 15.5333 63.4536 14.9267 64.2003 14.5C64.9603 14.06 65.8136 13.84 66.7603 13.84C67.9336 13.84 68.9203 14.1467 69.7203 14.76C70.5336 15.3733 71.047 16.1933 71.2603 17.22H69.5403C69.407 16.6067 69.0803 16.1333 68.5603 15.8C68.0403 15.4533 67.4336 15.28 66.7403 15.28C66.1803 15.28 65.6536 15.42 65.1603 15.7C64.667 15.98 64.267 16.4 63.9603 16.96C63.6536 17.52 63.5003 18.2133 63.5003 19.04C63.5003 19.8667 63.6536 20.56 63.9603 21.12C64.267 21.68 64.667 22.1067 65.1603 22.4C65.6536 22.68 66.1803 22.82 66.7403 22.82C67.4336 22.82 68.0403 22.6533 68.5603 22.32C69.0803 21.9733 69.407 21.4867 69.5403 20.86H71.2603C71.0603 21.86 70.5536 22.6733 69.7403 23.3C68.927 23.9267 67.9336 24.24 66.7603 24.24ZM78.0666 24.24C77.1199 24.24 76.2799 24.0267 75.5466 23.6C74.8132 23.16 74.2332 22.5533 73.8066 21.78C73.3932 21.0067 73.1866 20.0933 73.1866 19.04C73.1866 18 73.3932 17.0933 73.8066 16.32C74.2199 15.5333 74.7932 14.9267 75.5266 14.5C76.2732 14.06 77.1332 13.84 78.1066 13.84C79.0666 13.84 79.8932 14.06 80.5866 14.5C81.2932 14.9267 81.8332 15.4933 82.2066 16.2C82.5799 16.9067 82.7666 17.6667 82.7666 18.48C82.7666 18.6267 82.7599 18.7733 82.7466 18.92C82.7466 19.0667 82.7466 19.2333 82.7466 19.42H74.8466C74.8866 20.18 75.0599 20.8133 75.3666 21.32C75.6866 21.8133 76.0799 22.1867 76.5466 22.44C77.0266 22.6933 77.5332 22.82 78.0666 22.82C78.7599 22.82 79.3399 22.66 79.8066 22.34C80.2732 22.02 80.6132 21.5867 80.8266 21.04H82.4866C82.2199 21.96 81.7066 22.7267 80.9466 23.34C80.1999 23.94 79.2399 24.24 78.0666 24.24ZM78.0666 15.26C77.2666 15.26 76.5532 15.5067 75.9266 16C75.3132 16.48 74.9599 17.1867 74.8666 18.12H81.1066C81.0666 17.2267 80.7599 16.5267 80.1866 16.02C79.6132 15.5133 78.9066 15.26 78.0666 15.26ZM90.2933 24.24C89.4799 24.24 88.7533 24.0733 88.1133 23.74C87.4866 23.4067 87.0066 22.94 86.6733 22.34L86.5133 24H84.9933V9.6H86.6733V15.72C86.9933 15.24 87.4466 14.8067 88.0333 14.42C88.6333 14.0333 89.3933 13.84 90.3133 13.84C91.2999 13.84 92.1599 14.0667 92.8933 14.52C93.6266 14.9733 94.1933 15.5933 94.5933 16.38C95.0066 17.1667 95.2133 18.06 95.2133 19.06C95.2133 20.06 95.0066 20.9533 94.5933 21.74C94.1933 22.5133 93.6199 23.1267 92.8733 23.58C92.1399 24.02 91.2799 24.24 90.2933 24.24ZM90.1133 22.78C90.7799 22.78 91.3666 22.6267 91.8733 22.32C92.3799 22 92.7799 21.56 93.0733 21C93.3666 20.44 93.5133 19.7867 93.5133 19.04C93.5133 18.2933 93.3666 17.64 93.0733 17.08C92.7799 16.52 92.3799 16.0867 91.8733 15.78C91.3666 15.46 90.7799 15.3 90.1133 15.3C89.4466 15.3 88.8599 15.46 88.3533 15.78C87.8466 16.0867 87.4466 16.52 87.1533 17.08C86.8599 17.64 86.7133 18.2933 86.7133 19.04C86.7133 19.7867 86.8599 20.44 87.1533 21C87.4466 21.56 87.8466 22 88.3533 22.32C88.8599 22.6267 89.4466 22.78 90.1133 22.78ZM102.072 24.24C101.139 24.24 100.299 24.0267 99.5519 23.6C98.8052 23.1733 98.2119 22.5733 97.7719 21.8C97.3452 21.0133 97.1319 20.0933 97.1319 19.04C97.1319 17.9867 97.3519 17.0733 97.7919 16.3C98.2319 15.5133 98.8252 14.9067 99.5719 14.48C100.332 14.0533 101.179 13.84 102.112 13.84C103.045 13.84 103.885 14.0533 104.632 14.48C105.379 14.9067 105.965 15.5133 106.392 16.3C106.832 17.0733 107.052 17.9867 107.052 19.04C107.052 20.0933 106.832 21.0133 106.392 21.8C105.952 22.5733 105.352 23.1733 104.592 23.6C103.845 24.0267 103.005 24.24 102.072 24.24ZM102.072 22.8C102.645 22.8 103.179 22.66 103.672 22.38C104.165 22.1 104.565 21.68 104.872 21.12C105.179 20.56 105.332 19.8667 105.332 19.04C105.332 18.2133 105.179 17.52 104.872 16.96C104.579 16.4 104.185 15.98 103.692 15.7C103.199 15.42 102.672 15.28 102.112 15.28C101.539 15.28 101.005 15.42 100.512 15.7C100.019 15.98 99.6185 16.4 99.3119 16.96C99.0052 17.52 98.8519 18.2133 98.8519 19.04C98.8519 19.8667 99.0052 20.56 99.3119 21.12C99.6185 21.68 100.012 22.1 100.492 22.38C100.985 22.66 101.512 22.8 102.072 22.8ZM113.908 24.24C112.974 24.24 112.134 24.0267 111.388 23.6C110.641 23.1733 110.048 22.5733 109.608 21.8C109.181 21.0133 108.968 20.0933 108.968 19.04C108.968 17.9867 109.188 17.0733 109.628 16.3C110.068 15.5133 110.661 14.9067 111.408 14.48C112.168 14.0533 113.014 13.84 113.948 13.84C114.881 13.84 115.721 14.0533 116.468 14.48C117.214 14.9067 117.801 15.5133 118.228 16.3C118.668 17.0733 118.888 17.9867 118.888 19.04C118.888 20.0933 118.668 21.0133 118.228 21.8C117.788 22.5733 117.188 23.1733 116.428 23.6C115.681 24.0267 114.841 24.24 113.908 24.24ZM113.908 22.8C114.481 22.8 115.014 22.66 115.508 22.38C116.001 22.1 116.401 21.68 116.708 21.12C117.014 20.56 117.168 19.8667 117.168 19.04C117.168 18.2133 117.014 17.52 116.708 16.96C116.414 16.4 116.021 15.98 115.528 15.7C115.034 15.42 114.508 15.28 113.948 15.28C113.374 15.28 112.841 15.42 112.348 15.7C111.854 15.98 111.454 16.4 111.148 16.96C110.841 17.52 110.688 18.2133 110.688 19.04C110.688 19.8667 110.841 20.56 111.148 21.12C111.454 21.68 111.848 22.1 112.328 22.38C112.821 22.66 113.348 22.8 113.908 22.8ZM121.224 24V9.6H122.904V18.26L126.964 14.08H129.024L124.624 18.56L129.584 24H127.444L122.904 18.86V24H121.224Z" fill="#99B6C5"/>
</svg>
