<svg width="130" height="31" viewBox="0 0 130 31" fill="none" xmlns="http://www.w3.org/2000/svg">
<path d="M0.674561 23.0002V22.2935L1.31699 22.1008C1.72387 21.9723 2.00226 21.7689 2.15216 21.4905C2.30206 21.1907 2.37702 20.8052 2.37702 20.3341V4.43379C2.37702 4.0055 2.32348 3.66287 2.21641 3.4059C2.10933 3.12751 1.84165 2.91336 1.41336 2.76346L0.674561 2.47436V1.76768H6.80983L12.8487 17.4752L18.5343 1.76768H24.7981V2.47436L24.2841 2.63497C23.8772 2.76346 23.5988 2.9669 23.4489 3.24529C23.299 3.50226 23.2241 3.84489 23.2241 4.27319C23.2027 5.51523 23.192 6.75727 23.192 7.99932C23.192 9.21995 23.192 10.462 23.192 11.7254V13.0424C23.192 14.2845 23.192 15.5265 23.192 16.7686C23.192 18.0106 23.2027 19.2419 23.2241 20.4626C23.2241 20.9123 23.2776 21.2549 23.3847 21.4905C23.4918 21.726 23.7487 21.9188 24.1556 22.0687L24.7981 22.2935V23.0002H16.9924V22.2935L17.6991 22.0687C18.106 21.9188 18.3523 21.726 18.4379 21.4905C18.545 21.2335 18.5985 20.8909 18.5985 20.4626V13.4921L18.6628 4.8835L12.1099 23.0002H10.3111L3.40491 5.07623L3.5334 12.4V20.3662C3.5334 20.8373 3.59764 21.2121 3.72613 21.4905C3.85462 21.7689 4.1223 21.9616 4.52918 22.0687L5.17161 22.2935V23.0002H0.674561ZM33.2632 23.4499C31.807 23.4499 30.49 23.1394 29.3122 22.5184C28.1344 21.8759 27.2028 20.9551 26.5176 19.7559C25.8537 18.5353 25.5218 17.0577 25.5218 15.3231C25.5218 13.5885 25.8966 12.1109 26.6461 10.8903C27.3956 9.66965 28.3913 8.73812 29.6334 8.09568C30.8968 7.43183 32.2781 7.0999 33.7771 7.0999C34.9977 7.0999 36.0363 7.30334 36.8929 7.71022C37.7495 8.1171 38.4026 8.64175 38.8524 9.28419C39.3021 9.90521 39.5269 10.5691 39.5269 11.2757C39.5269 11.8753 39.3449 12.3358 38.9808 12.657C38.6382 12.9782 38.1885 13.1388 37.6317 13.1388C37.0321 13.1388 36.5396 12.9247 36.1541 12.4964C35.7901 12.0681 35.5759 11.522 35.5117 10.8581C35.4903 10.4299 35.4903 10.0658 35.5117 9.76602C35.5545 9.46621 35.5545 9.17712 35.5117 8.89873C35.426 8.53468 35.2761 8.28841 35.062 8.15993C34.8692 8.03144 34.5909 7.96719 34.2268 7.96719C32.8777 7.96719 31.8391 8.51327 31.111 9.60541C30.4043 10.6761 30.051 12.4214 30.051 14.8413C30.051 16.9185 30.4471 18.5139 31.2395 19.6274C32.0318 20.741 33.2632 21.2977 34.9335 21.2977C35.9186 21.2977 36.7323 21.1157 37.3748 20.7517C38.0172 20.3662 38.6061 19.8201 39.1415 19.1135L39.6554 19.4989C39.12 20.7838 38.2956 21.7689 37.182 22.4541C36.0899 23.118 34.7836 23.4499 33.2632 23.4499ZM40.6088 23.0002V22.3256L41.2833 22.1329C41.7116 22.0044 41.99 21.8117 42.1185 21.5547C42.247 21.2977 42.3112 20.9551 42.3112 20.5268V4.27319C42.3112 3.82348 42.2363 3.48085 42.0864 3.24529C41.9579 2.98831 41.6795 2.79558 41.2512 2.66709L40.6088 2.44224V1.76768H48.4144V2.44224L47.7398 2.66709C47.3329 2.77417 47.0653 2.95619 46.9368 3.21316C46.8083 3.47014 46.744 3.82348 46.744 4.27319V20.5589C46.744 20.9872 46.819 21.3299 46.9689 21.5868C47.1188 21.8224 47.3972 22.0044 47.8041 22.1329L48.4144 22.3256V23.0002H40.6088ZM52.3011 23.0002V22.3256L52.6866 22.2293C53.0935 22.1222 53.3076 21.9188 53.329 21.619C53.3504 21.3192 53.2112 20.9765 52.9114 20.5911L46.7762 12.0788L54.6139 4.11258C54.9351 3.79136 55.1064 3.50226 55.1278 3.24529C55.1707 2.9669 54.9779 2.75275 54.5496 2.60285L54.0036 2.44224V1.76768H59.0788V2.44224L58.2437 2.66709C57.7511 2.81699 57.3549 2.99902 57.0551 3.21316C56.7553 3.40589 56.4127 3.7057 56.0272 4.11258L50.3096 9.92663L57.6655 20.4305C58.0081 20.9016 58.3293 21.2763 58.6291 21.5547C58.9503 21.8331 59.3786 22.0473 59.914 22.1972L60.3637 22.3256V23.0002H52.3011ZM65.0996 5.33321C64.393 5.33321 63.7934 5.10835 63.3008 4.65865C62.8083 4.20894 62.562 3.64146 62.562 2.95619C62.562 2.24951 62.8083 1.68202 63.3008 1.25373C63.7934 0.804024 64.393 0.579172 65.0996 0.579172C65.8063 0.579172 66.4059 0.804024 66.8985 1.25373C67.391 1.68202 67.6373 2.24951 67.6373 2.95619C67.6373 3.64146 67.391 4.20894 66.8985 4.65865C66.4059 5.10835 65.8063 5.33321 65.0996 5.33321ZM61.4056 23.0002V22.3899L61.8875 22.2614C62.3158 22.1329 62.6049 21.9402 62.7548 21.6832C62.9047 21.4262 62.9903 21.0836 63.0117 20.6553V14.7449C63.0117 14.081 63.0117 13.4707 63.0117 12.9139C63.0117 12.3358 63.001 11.7469 62.9796 11.1472C62.9796 10.719 62.894 10.387 62.7226 10.1515C62.5727 9.8945 62.2836 9.72319 61.8553 9.63753L61.4056 9.54116V8.96297L67.027 7.0999L67.4124 7.45325L67.3161 12.0145V20.6874C67.3161 21.1157 67.391 21.4584 67.5409 21.7153C67.7122 21.9723 68.0013 22.165 68.4082 22.2935L68.7615 22.3899V23.0002H61.4056ZM70.1882 23.0002V22.3899L70.7021 22.2614C71.4088 22.0473 71.7622 21.5226 71.7622 20.6874V11.2115C71.7408 10.7618 71.6658 10.4192 71.5373 10.1836C71.4088 9.92663 71.1304 9.75531 70.7021 9.66965L70.1882 9.54116V8.96297L75.3919 7.0999L75.7774 7.45325L76.0023 9.4448C76.7732 8.75953 77.6298 8.20275 78.572 7.77446C79.5357 7.32476 80.4779 7.0999 81.3987 7.0999C82.8121 7.0999 83.8935 7.48537 84.643 8.25629C85.4139 9.02722 85.7994 10.205 85.7994 11.7897V20.7196C85.7994 21.5547 86.1849 22.0794 86.9558 22.2935L87.3091 22.3899V23.0002H79.9211V22.3899L80.4029 22.2614C81.1096 22.0258 81.463 21.5012 81.463 20.6874V11.1472C81.463 10.3977 81.3024 9.85168 80.9811 9.50904C80.6599 9.16641 80.1246 8.99509 79.375 8.99509C78.3257 8.99509 77.2336 9.45551 76.0986 10.3763V20.7196C76.0986 21.5547 76.4734 22.0794 77.2229 22.2935L77.5441 22.3899V23.0002H70.1882ZM88.6974 23.0002V22.3899L89.1792 22.2614C89.8859 22.0258 90.2392 21.4905 90.2392 20.6553C90.2392 19.9272 90.2392 19.1991 90.2392 18.471C90.2607 17.7215 90.2714 16.9827 90.2714 16.2546V4.04833C90.2714 3.59863 90.1964 3.2667 90.0465 3.05255C89.8966 2.81699 89.6075 2.64568 89.1792 2.53861L88.6974 2.41012V1.7998L94.3187 0.450684L94.7363 0.739781L94.6078 5.26896V20.6553C94.6292 21.0836 94.7149 21.4369 94.8648 21.7153C95.0361 21.9723 95.3252 22.1543 95.7321 22.2614L96.1818 22.3899V23.0002H88.6974ZM105.667 7.0999C107.016 7.0999 108.172 7.37829 109.136 7.93507C110.099 8.49185 110.838 9.26278 111.352 10.2478C111.887 11.2115 112.155 12.325 112.155 13.5885C112.155 13.8669 112.144 14.1346 112.123 14.3916C112.102 14.6271 112.059 14.852 111.995 15.0661H102.326C102.347 17.2718 102.754 18.8565 103.546 19.8201C104.36 20.7838 105.538 21.2656 107.08 21.2656C108.151 21.2656 109.018 21.0943 109.682 20.7517C110.346 20.3876 110.956 19.8844 111.513 19.2419L112.027 19.7238C111.384 20.9016 110.506 21.8224 109.393 22.4863C108.3 23.1287 106.994 23.4499 105.474 23.4499C103.953 23.4499 102.615 23.1287 101.459 22.4863C100.302 21.8438 99.392 20.923 98.7282 19.7238C98.0858 18.5031 97.7645 17.047 97.7645 15.3552C97.7645 13.5992 98.1393 12.1109 98.8888 10.8903C99.6597 9.66965 100.645 8.73812 101.844 8.09568C103.065 7.43183 104.339 7.0999 105.667 7.0999ZM105.506 8.03144C104.885 8.03144 104.339 8.21346 103.868 8.57751C103.418 8.92014 103.054 9.54116 102.776 10.4406C102.519 11.3186 102.369 12.5606 102.326 14.1667H108.076C108.311 12.0038 108.226 10.4406 107.819 9.47692C107.412 8.51327 106.641 8.03144 105.506 8.03144ZM116.461 30.7416C115.604 30.7416 114.93 30.5381 114.437 30.1312C113.945 29.7244 113.698 29.189 113.698 28.5252C113.698 27.9255 113.902 27.4437 114.309 27.0797C114.737 26.737 115.208 26.5657 115.722 26.5657C116.258 26.5657 116.697 26.6621 117.039 26.8548C117.382 27.0476 117.682 27.3259 117.939 27.69L118.131 27.947C118.624 28.5466 119.084 28.5359 119.513 27.9148C119.791 27.5508 120.059 27.1011 120.316 26.5657C120.594 26.0304 120.894 25.3237 121.215 24.4457L115.112 9.86238C114.962 9.45551 114.791 9.14499 114.598 8.93085C114.405 8.69529 114.116 8.50256 113.731 8.35266L113.185 8.15993V7.58173H121.119V8.15993L120.444 8.35266C119.973 8.50256 119.716 8.73812 119.673 9.05934C119.652 9.35914 119.727 9.75531 119.898 10.2478L123.174 18.7922L126.322 10.1836C126.494 9.71248 126.558 9.31631 126.515 8.99509C126.472 8.67387 126.205 8.45973 125.712 8.35266L125.005 8.15993V7.58173H129.792V8.15993L129.085 8.38478C128.614 8.51327 128.271 8.706 128.057 8.96297C127.864 9.19853 127.682 9.55187 127.511 10.023L122.371 23.8354C121.515 26.191 120.637 27.9255 119.737 29.0391C118.859 30.1741 117.767 30.7416 116.461 30.7416Z" fill="white"/>
</svg>
