<svg width="208" height="16" viewBox="0 0 208 16" fill="none" xmlns="http://www.w3.org/2000/svg">
<g opacity="0.6">
<path opacity="0.6" d="M8 16C12.4183 16 16 12.4183 16 8C16 3.58172 12.4183 0 8 0C3.58172 0 0 3.58172 0 8C0 12.4183 3.58172 16 8 16Z" fill="#CCDAE2"/>
<path opacity="0.6" d="M40 16C44.4183 16 48 12.4183 48 8C48 3.58172 44.4183 0 40 0C35.5817 0 32 3.58172 32 8C32 12.4183 35.5817 16 40 16Z" fill="#CCDAE2"/>
<path opacity="0.6" d="M72 16C76.4183 16 80 12.4183 80 8C80 3.58172 76.4183 0 72 0C67.5817 0 64 3.58172 64 8C64 12.4183 67.5817 16 72 16Z" fill="#CCDAE2"/>
<path opacity="0.6" d="M104 16C108.418 16 112 12.4183 112 8C112 3.58172 108.418 0 104 0C99.5817 0 96 3.58172 96 8C96 12.4183 99.5817 16 104 16Z" fill="#CCDAE2"/>
<path opacity="0.6" d="M136 16C140.418 16 144 12.4183 144 8C144 3.58172 140.418 0 136 0C131.582 0 128 3.58172 128 8C128 12.4183 131.582 16 136 16Z" fill="#CCDAE2"/>
<path opacity="0.6" d="M168 16C172.418 16 176 12.4183 176 8C176 3.58172 172.418 0 168 0C163.582 0 160 3.58172 160 8C160 12.4183 163.582 16 168 16Z" fill="#CCDAE2"/>
<path opacity="0.6" d="M200 16C204.418 16 208 12.4183 208 8C208 3.58172 204.418 0 200 0C195.582 0 192 3.58172 192 8C192 12.4183 195.582 16 200 16Z" fill="#CCDAE2"/>
</g>
</svg>
