<svg width="61" height="61" viewBox="0 0 61 61" fill="none" xmlns="http://www.w3.org/2000/svg">
<path d="M28.42 0C14.845 0 3.39 9.23996 0 21.76H2.67C3.63 18.555 5.185 15.615 7.18 13.035C9.365 14.265 11.895 15.295 14.695 16.085C14.225 17.88 13.84 19.77 13.57 21.76H16.18C16.44 20 16.795 18.32 17.215 16.72C20.3 17.4 23.635 17.805 27.14 17.88V21.76H29.7V17.88C33.205 17.805 36.54 17.405 39.625 16.72C40.045 18.32 40.4 20 40.66 21.76H43.27C43 19.77 42.615 17.88 42.145 16.085C44.945 15.295 47.475 14.265 49.66 13.035C51.655 15.615 53.21 18.555 54.165 21.76H56.84C53.45 9.23996 41.995 0 28.42 0ZM27.14 2.715V15.32C23.885 15.245 20.79 14.87 17.94 14.25C20.045 7.95496 23.38 3.545 27.14 2.715ZM29.7 2.715C33.46 3.545 36.795 7.95496 38.9 14.25C36.05 14.87 32.955 15.245 29.7 15.32V2.715ZM20.91 3.65C18.655 6.03 16.77 9.45996 15.41 13.62C12.965 12.93 10.755 12.055 8.865 11.04C12.105 7.59496 16.25 5.015 20.91 3.65ZM35.93 3.65C40.59 5.015 44.735 7.59496 47.975 11.04C46.085 12.055 43.875 12.93 41.43 13.62C40.07 9.45996 38.185 6.03 35.93 3.65ZM0.26 24.32L3.51 34.56H6.49L9.2 26.905L11.91 34.56H14.825L18.135 24.32H15.365L13.275 31.475L10.885 24.32H7.62L5.13 31.355L3.075 24.32H0.26ZM19.48 24.32L22.735 34.56H25.72L28.42 26.905L31.135 34.56H34.05L37.36 24.32H34.585L32.5 31.475L30.11 24.32H26.84L24.35 31.355L22.3 24.32H19.48ZM38.64 24.32L41.9 34.56H44.895L47.61 26.905L50.335 34.56H53.26L56.58 24.32H53.8L51.7 31.475L49.305 24.32H46.025L43.525 31.355L41.46 24.32H38.64ZM47.62 35.84C40.58 35.84 34.82 41.6 34.82 48.64C34.82 55.68 40.58 61.44 47.62 61.44C54.66 61.44 60.42 55.68 60.42 48.64C60.42 41.6 54.66 35.84 47.62 35.84ZM0 37.12C3.39 49.64 14.845 58.88 28.42 58.88C30.855 58.88 33.215 58.57 35.48 58.015C35.05 57.46 34.67 56.865 34.32 56.26C33.935 55.595 33.595 54.905 33.315 54.185C32.175 55.21 30.96 55.895 29.7 56.18V43.555C30.835 43.59 31.965 43.65 33.075 43.745C33.365 42.89 33.715 42.055 34.145 41.275C32.69 41.12 31.2 41.035 29.7 41V37.12H27.14V41C23.685 41.08 20.34 41.475 17.22 42.165C16.795 40.565 16.44 38.885 16.18 37.12H13.57C13.84 39.115 14.23 41.005 14.695 42.8C11.92 43.585 9.38 44.605 7.18 45.845C5.185 43.265 3.63 40.325 2.67 37.12H0ZM47.62 38.4C53.25 38.4 57.86 43.01 57.86 48.64C57.86 54.27 53.25 58.88 47.62 58.88C41.99 58.88 37.38 54.27 37.38 48.64C37.38 43.01 41.99 38.4 47.62 38.4ZM47.62 42.24C44.805 42.24 43.78 44.545 43.78 46.08H46.34C46.34 45.44 46.595 44.8 47.62 44.8C48.26 44.8 48.9 45.055 48.9 46.08C48.9 46.21 48.515 46.72 48.26 46.975C47.49 47.87 46.34 49.28 46.34 51.2H48.9C48.9 50.175 49.54 49.41 50.18 48.64C50.82 47.87 51.46 47.105 51.46 46.08C51.46 43.265 49.155 42.24 47.62 42.24ZM27.14 43.56V56.165C23.38 55.335 20.04 50.925 17.94 44.62C20.83 44 23.93 43.635 27.14 43.56ZM15.41 45.25C16.77 49.415 18.655 52.85 20.91 55.225C16.25 53.865 12.105 51.285 8.86 47.835C10.795 46.795 13.005 45.93 15.41 45.25ZM46.34 52.48V55.04H48.9V52.48H46.34Z" fill="#00486D"/>
</svg>
