<svg width="116" height="36" viewBox="0 0 116 36" fill="none" xmlns="http://www.w3.org/2000/svg">
<path fill-rule="evenodd" clip-rule="evenodd" d="M0 18C0 9.16347 7.16347 2 16 2C24.8365 2 32 9.16347 32 18C32 26.8365 24.8365 34 16 34C7.16347 34 0 26.8365 0 18ZM11.307 15.2519H7.68107V26.1464H11.307V15.2519ZM11.5459 11.8818C11.5223 10.8136 10.7585 10 9.518 10C8.2776 10 7.46667 10.8136 7.46667 11.8818C7.46667 12.9279 8.25367 13.7649 9.47093 13.7649H9.49413C10.7585 13.7649 11.5459 12.9279 11.5459 11.8818ZM24.3836 19.8998C24.3836 16.5535 22.5948 14.9961 20.2087 14.9961C18.2836 14.9961 17.4217 16.0535 16.9405 16.7953V15.2522H13.3141C13.3619 16.2745 13.3141 26.1467 13.3141 26.1467H16.9405V20.0623C16.9405 19.7367 16.964 19.4119 17.0599 19.1788C17.3219 18.5283 17.9186 17.8548 18.9203 17.8548C20.2329 17.8548 20.7577 18.8538 20.7577 20.3178V26.1464H24.3835L24.3836 19.8998Z" fill="#99B6C5"/>
<path d="M41.406 24V10.7H43.002V22.727H49.196V24H41.406ZM52.2624 12.486C51.9458 12.486 51.6798 12.3847 51.4644 12.182C51.2618 11.9667 51.1604 11.7007 51.1604 11.384C51.1604 11.08 51.2618 10.8267 51.4644 10.624C51.6798 10.4213 51.9458 10.32 52.2624 10.32C52.5664 10.32 52.8261 10.4213 53.0414 10.624C53.2568 10.8267 53.3644 11.08 53.3644 11.384C53.3644 11.7007 53.2568 11.9667 53.0414 12.182C52.8261 12.3847 52.5664 12.486 52.2624 12.486ZM51.4644 24V14.576H53.0604V24H51.4644ZM55.8393 24V14.576H57.2833L57.3783 16.267C57.6823 15.6717 58.1193 15.203 58.6893 14.861C59.2593 14.519 59.9053 14.348 60.6273 14.348C61.742 14.348 62.6287 14.69 63.2873 15.374C63.9587 16.0453 64.2943 17.084 64.2943 18.49V24H62.6983V18.661C62.6983 16.6977 61.8877 15.716 60.2663 15.716C59.4557 15.716 58.778 16.0137 58.2333 16.609C57.7013 17.1917 57.4353 18.0277 57.4353 19.117V24H55.8393ZM66.7124 24V10.32H68.3084V18.547L72.1654 14.576H74.1224L69.9424 18.832L74.6544 24H72.6214L68.3084 19.117V24H66.7124ZM79.8371 24.228C78.9377 24.228 78.1397 24.0253 77.4431 23.62C76.7464 23.202 76.1954 22.6257 75.7901 21.891C75.3974 21.1563 75.2011 20.2887 75.2011 19.288C75.2011 18.3 75.3974 17.4387 75.7901 16.704C76.1827 15.9567 76.7274 15.3803 77.4241 14.975C78.1334 14.557 78.9504 14.348 79.8751 14.348C80.7871 14.348 81.5724 14.557 82.2311 14.975C82.9024 15.3803 83.4154 15.9187 83.7701 16.59C84.1247 17.2613 84.3021 17.9833 84.3021 18.756C84.3021 18.8953 84.2957 19.0347 84.2831 19.174C84.2831 19.3133 84.2831 19.4717 84.2831 19.649H76.7781C76.8161 20.371 76.9807 20.9727 77.2721 21.454C77.5761 21.9227 77.9497 22.2773 78.3931 22.518C78.8491 22.7587 79.3304 22.879 79.8371 22.879C80.4957 22.879 81.0467 22.727 81.4901 22.423C81.9334 22.119 82.2564 21.7073 82.4591 21.188H84.0361C83.7827 22.062 83.2951 22.7903 82.5731 23.373C81.8637 23.943 80.9517 24.228 79.8371 24.228ZM79.8371 15.697C79.0771 15.697 78.3994 15.9313 77.8041 16.4C77.2214 16.856 76.8857 17.5273 76.7971 18.414H82.7251C82.6871 17.5653 82.3957 16.9003 81.8511 16.419C81.3064 15.9377 80.6351 15.697 79.8371 15.697ZM90.6924 24.228C89.7551 24.228 88.9318 24.0127 88.2224 23.582C87.5258 23.1513 86.9811 22.5623 86.5884 21.815C86.2084 21.0677 86.0184 20.219 86.0184 19.269C86.0184 18.319 86.2148 17.4767 86.6074 16.742C87.0001 15.9947 87.5448 15.412 88.2414 14.994C88.9381 14.5633 89.7614 14.348 90.7114 14.348C91.4841 14.348 92.1681 14.5063 92.7634 14.823C93.3588 15.1397 93.8211 15.583 94.1504 16.153V10.32H95.7464V24H94.3024L94.1504 22.442C93.8464 22.898 93.4094 23.3097 92.8394 23.677C92.2694 24.0443 91.5538 24.228 90.6924 24.228ZM90.8634 22.841C91.4968 22.841 92.0541 22.6953 92.5354 22.404C93.0294 22.1 93.4094 21.682 93.6754 21.15C93.9541 20.618 94.0934 19.9973 94.0934 19.288C94.0934 18.5787 93.9541 17.958 93.6754 17.426C93.4094 16.894 93.0294 16.4823 92.5354 16.191C92.0541 15.887 91.4968 15.735 90.8634 15.735C90.2428 15.735 89.6854 15.887 89.1914 16.191C88.7101 16.4823 88.3301 16.894 88.0514 17.426C87.7854 17.958 87.6524 18.5787 87.6524 19.288C87.6524 19.9973 87.7854 20.618 88.0514 21.15C88.3301 21.682 88.7101 22.1 89.1914 22.404C89.6854 22.6953 90.2428 22.841 90.8634 22.841ZM98.4431 24V10.7H100.039V24H98.4431ZM102.764 24V14.576H104.208L104.303 16.267C104.607 15.6717 105.044 15.203 105.614 14.861C106.184 14.519 106.83 14.348 107.552 14.348C108.667 14.348 109.553 14.69 110.212 15.374C110.883 16.0453 111.219 17.084 111.219 18.49V24H109.623V18.661C109.623 16.6977 108.812 15.716 107.191 15.716C106.38 15.716 105.703 16.0137 105.158 16.609C104.626 17.1917 104.36 18.0277 104.36 19.117V24H102.764Z" fill="#99B6C5"/>
</svg>
