<svg width="130" height="31" viewBox="0 0 130 31" fill="none" xmlns="http://www.w3.org/2000/svg">
<path d="M0.674561 23V22.2933L1.31699 22.1006C1.72387 21.9721 2.00226 21.7687 2.15216 21.4903C2.30206 21.1905 2.37702 20.805 2.37702 20.3339V4.43358C2.37702 4.00529 2.32348 3.66266 2.21641 3.40569C2.10933 3.1273 1.84165 2.91315 1.41336 2.76325L0.674561 2.47415V1.76747H6.80983L12.8487 17.475L18.5343 1.76747H24.7981V2.47415L24.2841 2.63476C23.8772 2.76325 23.5988 2.96669 23.4489 3.24508C23.299 3.50205 23.2241 3.84468 23.2241 4.27298C23.2027 5.51502 23.192 6.75706 23.192 7.99911C23.192 9.21974 23.192 10.4618 23.192 11.7252V13.0422C23.192 14.2843 23.192 15.5263 23.192 16.7684C23.192 18.0104 23.2027 19.2417 23.2241 20.4624C23.2241 20.9121 23.2776 21.2547 23.3847 21.4903C23.4918 21.7258 23.7487 21.9186 24.1556 22.0685L24.7981 22.2933V23H16.9924V22.2933L17.6991 22.0685C18.106 21.9186 18.3523 21.7258 18.4379 21.4903C18.545 21.2333 18.5985 20.8907 18.5985 20.4624V13.4919L18.6628 4.88329L12.1099 23H10.3111L3.40491 5.07602L3.5334 12.3998V20.366C3.5334 20.8371 3.59764 21.2119 3.72613 21.4903C3.85462 21.7687 4.1223 21.9614 4.52918 22.0685L5.17161 22.2933V23H0.674561ZM33.2632 23.4497C31.807 23.4497 30.49 23.1392 29.3122 22.5182C28.1344 21.8757 27.2028 20.9549 26.5176 19.7557C25.8537 18.5351 25.5218 17.0575 25.5218 15.3229C25.5218 13.5883 25.8966 12.1107 26.6461 10.8901C27.3956 9.66944 28.3913 8.73791 29.6334 8.09547C30.8968 7.43162 32.2781 7.09969 33.7771 7.09969C34.9977 7.09969 36.0363 7.30313 36.8929 7.71001C37.7495 8.11689 38.4026 8.64154 38.8524 9.28398C39.3021 9.905 39.5269 10.5689 39.5269 11.2755C39.5269 11.8751 39.3449 12.3356 38.9808 12.6568C38.6382 12.978 38.1885 13.1386 37.6317 13.1386C37.0321 13.1386 36.5396 12.9245 36.1541 12.4962C35.7901 12.0679 35.5759 11.5218 35.5117 10.8579C35.4903 10.4297 35.4903 10.0656 35.5117 9.76581C35.5545 9.466 35.5545 9.17691 35.5117 8.89852C35.426 8.53447 35.2761 8.2882 35.062 8.15972C34.8692 8.03123 34.5909 7.96698 34.2268 7.96698C32.8777 7.96698 31.8391 8.51306 31.111 9.6052C30.4043 10.6759 30.051 12.4212 30.051 14.8411C30.051 16.9183 30.4471 18.5137 31.2395 19.6272C32.0318 20.7408 33.2632 21.2975 34.9335 21.2975C35.9186 21.2975 36.7323 21.1155 37.3748 20.7515C38.0172 20.366 38.6061 19.8199 39.1415 19.1133L39.6554 19.4987C39.12 20.7836 38.2956 21.7687 37.182 22.4539C36.0899 23.1178 34.7836 23.4497 33.2632 23.4497ZM40.6088 23V22.3254L41.2833 22.1327C41.7116 22.0042 41.99 21.8115 42.1185 21.5545C42.247 21.2975 42.3112 20.9549 42.3112 20.5266V4.27298C42.3112 3.82327 42.2363 3.48064 42.0864 3.24508C41.9579 2.9881 41.6795 2.79537 41.2512 2.66688L40.6088 2.44203V1.76747H48.4144V2.44203L47.7398 2.66688C47.3329 2.77396 47.0653 2.95598 46.9368 3.21295C46.8083 3.46993 46.744 3.82327 46.744 4.27298V20.5587C46.744 20.987 46.819 21.3297 46.9689 21.5866C47.1188 21.8222 47.3972 22.0042 47.8041 22.1327L48.4144 22.3254V23H40.6088ZM52.3011 23V22.3254L52.6866 22.2291C53.0935 22.122 53.3076 21.9186 53.329 21.6188C53.3504 21.319 53.2112 20.9763 52.9114 20.5909L46.7762 12.0786L54.6139 4.11237C54.9351 3.79115 55.1064 3.50205 55.1278 3.24508C55.1707 2.96669 54.9779 2.75254 54.5496 2.60264L54.0036 2.44203V1.76747H59.0788V2.44203L58.2437 2.66688C57.7511 2.81678 57.3549 2.99881 57.0551 3.21295C56.7553 3.40568 56.4127 3.70549 56.0272 4.11237L50.3096 9.92642L57.6655 20.4303C58.0081 20.9014 58.3293 21.2761 58.6291 21.5545C58.9503 21.8329 59.3786 22.0471 59.914 22.197L60.3637 22.3254V23H52.3011ZM65.0996 5.333C64.393 5.333 63.7934 5.10814 63.3008 4.65844C62.8083 4.20873 62.562 3.64125 62.562 2.95598C62.562 2.2493 62.8083 1.68181 63.3008 1.25352C63.7934 0.803818 64.393 0.578966 65.0996 0.578966C65.8063 0.578966 66.4059 0.803818 66.8985 1.25352C67.391 1.68181 67.6373 2.2493 67.6373 2.95598C67.6373 3.64125 67.391 4.20873 66.8985 4.65844C66.4059 5.10814 65.8063 5.333 65.0996 5.333ZM61.4056 23V22.3897L61.8875 22.2612C62.3158 22.1327 62.6049 21.94 62.7548 21.683C62.9047 21.426 62.9903 21.0834 63.0117 20.6551V14.7447C63.0117 14.0808 63.0117 13.4705 63.0117 12.9137C63.0117 12.3356 63.001 11.7467 62.9796 11.147C62.9796 10.7188 62.894 10.3868 62.7226 10.1513C62.5727 9.89429 62.2836 9.72298 61.8553 9.63732L61.4056 9.54095V8.96276L67.027 7.09969L67.4124 7.45304L67.3161 12.0143V20.6872C67.3161 21.1155 67.391 21.4582 67.5409 21.7151C67.7122 21.9721 68.0013 22.1648 68.4082 22.2933L68.7615 22.3897V23H61.4056ZM70.1882 23V22.3897L70.7021 22.2612C71.4088 22.0471 71.7622 21.5224 71.7622 20.6872V11.2113C71.7408 10.7616 71.6658 10.419 71.5373 10.1834C71.4088 9.92642 71.1304 9.7551 70.7021 9.66944L70.1882 9.54095V8.96276L75.3919 7.09969L75.7774 7.45304L76.0023 9.44459C76.7732 8.75932 77.6298 8.20254 78.572 7.77425C79.5357 7.32455 80.4779 7.09969 81.3987 7.09969C82.8121 7.09969 83.8935 7.48516 84.643 8.25608C85.4139 9.02701 85.7994 10.2048 85.7994 11.7895V20.7194C85.7994 21.5545 86.1849 22.0792 86.9558 22.2933L87.3091 22.3897V23H79.9211V22.3897L80.4029 22.2612C81.1096 22.0256 81.463 21.501 81.463 20.6872V11.147C81.463 10.3975 81.3024 9.85147 80.9811 9.50883C80.6599 9.1662 80.1246 8.99488 79.375 8.99488C78.3257 8.99488 77.2336 9.4553 76.0986 10.3761V20.7194C76.0986 21.5545 76.4734 22.0792 77.2229 22.2933L77.5441 22.3897V23H70.1882ZM88.6974 23V22.3897L89.1792 22.2612C89.8859 22.0256 90.2392 21.4903 90.2392 20.6551C90.2392 19.927 90.2392 19.1989 90.2392 18.4708C90.2607 17.7213 90.2714 16.9825 90.2714 16.2544V4.04812C90.2714 3.59842 90.1964 3.26649 90.0465 3.05234C89.8966 2.81678 89.6075 2.64547 89.1792 2.5384L88.6974 2.40991V1.79959L94.3187 0.450478L94.7363 0.739575L94.6078 5.26875V20.6551C94.6292 21.0834 94.7149 21.4367 94.8648 21.7151C95.0361 21.9721 95.3252 22.1541 95.7321 22.2612L96.1818 22.3897V23H88.6974ZM105.667 7.09969C107.016 7.09969 108.172 7.37808 109.136 7.93486C110.099 8.49164 110.838 9.26257 111.352 10.2476C111.887 11.2113 112.155 12.3248 112.155 13.5883C112.155 13.8667 112.144 14.1344 112.123 14.3914C112.102 14.6269 112.059 14.8518 111.995 15.0659H102.326C102.347 17.2716 102.754 18.8563 103.546 19.8199C104.36 20.7836 105.538 21.2654 107.08 21.2654C108.151 21.2654 109.018 21.0941 109.682 20.7515C110.346 20.3874 110.956 19.8842 111.513 19.2417L112.027 19.7236C111.384 20.9014 110.506 21.8222 109.393 22.4861C108.3 23.1285 106.994 23.4497 105.474 23.4497C103.953 23.4497 102.615 23.1285 101.459 22.4861C100.302 21.8436 99.392 20.9228 98.7282 19.7236C98.0858 18.5029 97.7645 17.0468 97.7645 15.355C97.7645 13.599 98.1393 12.1107 98.8888 10.8901C99.6597 9.66944 100.645 8.73791 101.844 8.09547C103.065 7.43162 104.339 7.09969 105.667 7.09969ZM105.506 8.03123C104.885 8.03123 104.339 8.21325 103.868 8.5773C103.418 8.91993 103.054 9.54095 102.776 10.4404C102.519 11.3184 102.369 12.5604 102.326 14.1665H108.076C108.311 12.0036 108.226 10.4404 107.819 9.47671C107.412 8.51306 106.641 8.03123 105.506 8.03123ZM116.461 30.7414C115.604 30.7414 114.93 30.5379 114.437 30.131C113.945 29.7242 113.698 29.1888 113.698 28.525C113.698 27.9253 113.902 27.4435 114.309 27.0795C114.737 26.7368 115.208 26.5655 115.722 26.5655C116.258 26.5655 116.697 26.6619 117.039 26.8546C117.382 27.0474 117.682 27.3257 117.939 27.6898L118.131 27.9468C118.624 28.5464 119.084 28.5357 119.513 27.9146C119.791 27.5506 120.059 27.1009 120.316 26.5655C120.594 26.0302 120.894 25.3235 121.215 24.4455L115.112 9.86217C114.962 9.4553 114.791 9.14478 114.598 8.93064C114.405 8.69508 114.116 8.50235 113.731 8.35245L113.185 8.15972V7.58152H121.119V8.15972L120.444 8.35245C119.973 8.50235 119.716 8.73791 119.673 9.05913C119.652 9.35893 119.727 9.7551 119.898 10.2476L123.174 18.792L126.322 10.1834C126.494 9.71227 126.558 9.3161 126.515 8.99488C126.472 8.67366 126.205 8.45952 125.712 8.35245L125.005 8.15972V7.58152H129.792V8.15972L129.085 8.38457C128.614 8.51306 128.271 8.70579 128.057 8.96276C127.864 9.19832 127.682 9.55166 127.511 10.0228L122.371 23.8352C121.515 26.1908 120.637 27.9253 119.737 29.0389C118.859 30.1739 117.767 30.7414 116.461 30.7414Z" fill="#00486D"/>
</svg>
