<svg width="104" height="36" viewBox="0 0 104 36" fill="none" xmlns="http://www.w3.org/2000/svg">
<path fill-rule="evenodd" clip-rule="evenodd" d="M0 18C0 9.16347 7.16347 2 16 2C24.8365 2 32 9.16347 32 18C32 26.8365 24.8365 34 16 34C7.16347 34 0 26.8365 0 18ZM15.5208 15.005L15.5544 15.5587L14.9948 15.4909C12.9579 15.231 11.1785 14.3497 9.66753 12.8695L8.92893 12.1351L8.73867 12.6775C8.33573 13.8864 8.59313 15.1632 9.43253 16.0219C9.8802 16.4964 9.77947 16.5642 9.00727 16.2817C8.73867 16.1913 8.5036 16.1236 8.48127 16.1575C8.40293 16.2365 8.67147 17.2647 8.88413 17.6715C9.17513 18.2364 9.76827 18.7901 10.4174 19.1177L10.9658 19.3776L10.3167 19.3889C9.68993 19.3889 9.66753 19.4002 9.73473 19.6375C9.95853 20.3719 10.8427 21.1515 11.8275 21.4905L12.5215 21.7277L11.9171 22.0893C11.0217 22.609 9.96973 22.9028 8.91773 22.9254C8.41407 22.9367 8 22.9819 8 23.0158C8 23.1287 9.3654 23.7615 10.16 24.0101C12.5438 24.7445 15.3753 24.4281 17.5017 23.1739C19.0126 22.2813 20.5235 20.5075 21.2285 18.7901C21.6091 17.8749 21.9896 16.2027 21.9896 15.4005C21.9896 14.8807 22.0231 14.8129 22.6499 14.1915C23.0192 13.8299 23.3661 13.4345 23.4333 13.3215C23.5452 13.1068 23.5341 13.1068 22.9633 13.2989C22.012 13.6379 21.8777 13.5927 22.3477 13.0842C22.6947 12.7227 23.1087 12.0673 23.1087 11.8753C23.1087 11.8413 22.9409 11.8979 22.7506 11.9995C22.5492 12.1125 22.1015 12.282 21.7657 12.3837L21.1614 12.5758L20.613 12.2029C20.3109 11.9995 19.8855 11.7736 19.6617 11.7058C19.0909 11.5476 18.218 11.5702 17.7032 11.751C16.3042 12.2594 15.4201 13.5701 15.5208 15.005Z" fill="#99B6C5"/>
<path d="M44.76 24V11.38H40.58V10H50.62V11.38H46.44V24H44.76ZM53.5167 24L50.6167 14.08H52.2967L54.3967 21.86L56.7167 14.08H58.6167L60.9567 21.86L63.0367 14.08H64.7367L61.8367 24H60.1167L57.6767 15.82L55.2367 24H53.5167ZM67.6148 11.88C67.2815 11.88 67.0015 11.7733 66.7748 11.56C66.5615 11.3333 66.4548 11.0533 66.4548 10.72C66.4548 10.4 66.5615 10.1333 66.7748 9.92C67.0015 9.70667 67.2815 9.6 67.6148 9.6C67.9348 9.6 68.2082 9.70667 68.4348 9.92C68.6615 10.1333 68.7748 10.4 68.7748 10.72C68.7748 11.0533 68.6615 11.3333 68.4348 11.56C68.2082 11.7733 67.9348 11.88 67.6148 11.88ZM66.7748 24V14.08H68.4548V24H66.7748ZM75.3 24C74.3933 24 73.68 23.78 73.16 23.34C72.64 22.9 72.38 22.1067 72.38 20.96V15.5H70.66V14.08H72.38L72.6 11.7H74.06V14.08H76.98V15.5H74.06V20.96C74.06 21.5867 74.1867 22.0133 74.44 22.24C74.6933 22.4533 75.14 22.56 75.78 22.56H76.82V24H75.3ZM83.0344 24C82.1277 24 81.4144 23.78 80.8944 23.34C80.3744 22.9 80.1144 22.1067 80.1144 20.96V15.5H78.3944V14.08H80.1144L80.3344 11.7H81.7944V14.08H84.7144V15.5H81.7944V20.96C81.7944 21.5867 81.921 22.0133 82.1744 22.24C82.4277 22.4533 82.8744 22.56 83.5144 22.56H84.5544V24H83.0344ZM91.0353 24.24C90.0886 24.24 89.2486 24.0267 88.5153 23.6C87.782 23.16 87.202 22.5533 86.7753 21.78C86.362 21.0067 86.1553 20.0933 86.1553 19.04C86.1553 18 86.362 17.0933 86.7753 16.32C87.1886 15.5333 87.762 14.9267 88.4953 14.5C89.242 14.06 90.102 13.84 91.0753 13.84C92.0353 13.84 92.862 14.06 93.5553 14.5C94.262 14.9267 94.802 15.4933 95.1753 16.2C95.5486 16.9067 95.7353 17.6667 95.7353 18.48C95.7353 18.6267 95.7286 18.7733 95.7153 18.92C95.7153 19.0667 95.7153 19.2333 95.7153 19.42H87.8153C87.8553 20.18 88.0286 20.8133 88.3353 21.32C88.6553 21.8133 89.0486 22.1867 89.5153 22.44C89.9953 22.6933 90.502 22.82 91.0353 22.82C91.7286 22.82 92.3086 22.66 92.7753 22.34C93.242 22.02 93.582 21.5867 93.7953 21.04H95.4553C95.1886 21.96 94.6753 22.7267 93.9153 23.34C93.1686 23.94 92.2086 24.24 91.0353 24.24ZM91.0353 15.26C90.2353 15.26 89.522 15.5067 88.8953 16C88.282 16.48 87.9286 17.1867 87.8353 18.12H94.0753C94.0353 17.2267 93.7286 16.5267 93.1553 16.02C92.582 15.5133 91.8753 15.26 91.0353 15.26ZM97.962 24V14.08H99.482L99.622 15.98C99.9287 15.3267 100.395 14.8067 101.022 14.42C101.649 14.0333 102.422 13.84 103.342 13.84V15.6H102.882C102.295 15.6 101.755 15.7067 101.262 15.92C100.769 16.12 100.375 16.4667 100.082 16.96C99.7887 17.4533 99.642 18.1333 99.642 19V24H97.962Z" fill="#99B6C5"/>
</svg>
